<svg xmlns="http://www.w3.org/2000/svg" viewBox="0 0 512 512">
  <defs>
    <linearGradient id="bg" x1="0" x2="1" y1="0" y2="1">
      <stop offset="0" stop-color="#ffe08a"/>
      <stop offset=".42" stop-color="#7b2a22"/>
      <stop offset="1" stop-color="#101a3d"/>
    </linearGradient>
    <linearGradient id="hood" x1="0" x2="1" y1="0" y2="1">
      <stop offset="0" stop-color="#22263b"/>
      <stop offset="1" stop-color="#060713"/>
    </linearGradient>
  </defs>
  <rect width="512" height="512" rx="82" fill="url(#bg)"/>
  <path d="M99 433c21-108 63-251 157-315 91 69 136 205 157 315H99z" fill="url(#hood)" stroke="#dcae5a" stroke-width="14"/>
  <path d="M171 221c45-54 119-54 164 0l-29 154H200l-29-154z" fill="#7b5140"/>
  <path d="M185 232c37 23 94 23 133 0-7 78-25 124-66 124-39 0-61-46-67-124z" fill="#d7a273"/>
  <path d="M184 240l41 18M326 240l-41 18" stroke="#2a1111" stroke-width="15" stroke-linecap="round"/>
  <path d="M207 325c35 24 67 24 99 0" stroke="#2b1111" stroke-width="12" stroke-linecap="round"/>
  <path d="M152 402c31-45 63-64 101-64s70 19 105 64" fill="none" stroke="#bb793b" stroke-width="28" stroke-linecap="round"/>
  <path d="M88 96h336v52H88z" fill="#233d73" opacity=".42"/>
</svg>
