<svg xmlns="http://www.w3.org/2000/svg" viewBox="0 0 512 512">
  <defs>
    <linearGradient id="bg" x1="0" x2="1" y1="0" y2="1">
      <stop offset="0" stop-color="#ffe5a6"/>
      <stop offset=".48" stop-color="#46317f"/>
      <stop offset="1" stop-color="#071a39"/>
    </linearGradient>
    <linearGradient id="hair" x1="0" x2="1">
      <stop offset="0" stop-color="#ff6d8d"/>
      <stop offset="1" stop-color="#f6b44b"/>
    </linearGradient>
  </defs>
  <rect width="512" height="512" rx="82" fill="url(#bg)"/>
  <path d="M126 204L83 76l120 78M386 204l43-128-120 78" fill="#d5794a" stroke="#2e1534" stroke-width="13" stroke-linejoin="round"/>
  <circle cx="256" cy="260" r="125" fill="#e8ad7d" stroke="#2e1534" stroke-width="14"/>
  <path d="M139 238c22-94 83-140 181-124 58 10 94 55 105 124-89-65-192-64-286 0z" fill="url(#hair)"/>
  <path d="M192 256c24 12 41 12 58 0M318 256c-24 12-41 12-58 0" stroke="#311421" stroke-width="12" stroke-linecap="round"/>
  <path d="M228 329c26 22 58 22 84 0" stroke="#7c2a29" stroke-width="10" stroke-linecap="round"/>
  <path d="M136 414c69-58 170-69 240 0" fill="none" stroke="#f2c469" stroke-width="25" stroke-linecap="round"/>
  <circle cx="379" cy="103" r="34" fill="#fff3b2" opacity=".82"/>
</svg>
